<svg width="71" height="71" viewBox="0 0 71 71" fill="none" xmlns="http://www.w3.org/2000/svg">
<rect x="4" y="4" width="63" height="63" rx="28" fill="#F4EBFF"/>
<path d="M28.5 37.25C25.05 37.25 22.25 40.0375 22.25 43.5C22.25 46.9625 25.05 49.75 28.5 49.75C31.95 49.75 34.75 46.95 34.75 43.5C34.75 40.05 31.9625 37.25 28.5 37.25ZM25.95 40.95H28.5C28.975 40.95 29.35 41.3375 29.35 41.8C29.35 42.2625 28.9625 42.65 28.5 42.65H25.95C25.475 42.65 25.1 42.2625 25.1 41.8C25.1 41.3375 25.475 40.95 25.95 40.95ZM31.05 46.05H25.9375C25.4625 46.05 25.0875 45.6625 25.0875 45.2C25.0875 44.7375 25.475 44.35 25.9375 44.35H31.05C31.525 44.35 31.9 44.7375 31.9 45.2C31.9 45.6625 31.525 46.05 31.05 46.05Z" fill="#175CD3"/>
<path opacity="0.4" d="M42.25 24.75H29.75C26 24.75 23.5 26.625 23.5 31V34.925C23.5 35.8375 24.4375 36.4125 25.275 36.05C26.65 35.45 28.2125 35.225 29.85 35.4875C33.125 36.025 35.8 38.6125 36.4625 41.8625C36.65 42.8125 36.675 43.7375 36.55 44.625C36.45 45.3625 37.05 46.0125 37.7875 46.0125H42.25C46 46.0125 48.5 44.1375 48.5 39.7625V31.0125C48.5 26.625 46 24.75 42.25 24.75Z" fill="#175CD3"/>
<path d="M36 35.8379C34.95 35.8379 33.8875 35.513 33.075 34.8505L29.1625 31.7255C28.7625 31.4005 28.6875 30.8129 29.0125 30.4129C29.3375 30.0129 29.925 29.938 30.325 30.263L34.2375 33.388C35.1875 34.1505 36.8 34.1505 37.75 33.388L41.6625 30.263C42.0625 29.938 42.6624 30.0004 42.9749 30.4129C43.2999 30.8129 43.2375 31.413 42.825 31.7255L38.9124 34.8505C38.1124 35.513 37.05 35.8379 36 35.8379Z" fill="#175CD3"/>
<rect x="4" y="4" width="63" height="63" rx="28" stroke="#F9F5FF" stroke-width="8"/>
</svg>
