<svg width="56" height="56" viewBox="0 0 56 56" fill="none" xmlns="http://www.w3.org/2000/svg">
<rect width="56" height="56" rx="28" fill="#F4EBFF"/>
<path opacity="0.4" d="M27.4637 39.5837C34.1371 39.5837 39.547 34.1738 39.547 27.5003C39.547 20.8269 34.1371 15.417 27.4637 15.417C20.7903 15.417 15.3804 20.8269 15.3804 27.5003C15.3804 34.1738 20.7903 39.5837 27.4637 39.5837Z" fill="#3431BE"/>
<path d="M27.5001 36.26C24.9021 36.26 22.4613 34.9912 20.9751 32.8525C20.6851 32.4416 20.7938 31.8737 21.2046 31.5958C21.6155 31.3058 22.1834 31.4145 22.4613 31.8254C23.6092 33.4687 25.4942 34.4595 27.5001 34.4595C29.5059 34.4595 31.3909 33.4808 32.5388 31.8254C32.8288 31.4145 33.3846 31.3179 33.7955 31.5958C34.2063 31.8858 34.303 32.4416 34.0251 32.8525C32.5388 34.9912 30.098 36.26 27.5001 36.26Z" fill="#3431BE"/>
</svg>
