<svg width="71" height="71" viewBox="0 0 71 71" fill="none" xmlns="http://www.w3.org/2000/svg">
<rect x="4" y="4" width="63" height="63" rx="28" fill="#F4EBFF"/>
<path d="M41.62 34.7496C41.19 34.7496 40.85 34.3996 40.85 33.9796C40.85 33.6096 40.48 32.8396 39.86 32.1696C39.25 31.5196 38.58 31.1396 38.02 31.1396C37.59 31.1396 37.25 30.7896 37.25 30.3696C37.25 29.9496 37.6 29.5996 38.02 29.5996C39.02 29.5996 40.07 30.1396 40.99 31.1096C41.85 32.0196 42.4 33.1496 42.4 33.9696C42.4 34.3996 42.05 34.7496 41.62 34.7496Z" fill="#175CD3"/>
<path d="M45.23 34.75C44.8 34.75 44.46 34.4 44.46 33.98C44.46 30.43 41.57 27.55 38.03 27.55C37.6 27.55 37.26 27.2 37.26 26.78C37.26 26.36 37.6 26 38.02 26C42.42 26 46 29.58 46 33.98C46 34.4 45.65 34.75 45.23 34.75Z" fill="#175CD3"/>
<path opacity="0.4" d="M35.79 38.21L32.52 41.48C32.16 41.16 31.81 40.83 31.47 40.49C30.44 39.45 29.51 38.36 28.68 37.22C27.86 36.08 27.2 34.94 26.72 33.81C26.24 32.67 26 31.58 26 30.54C26 29.86 26.12 29.21 26.36 28.61C26.6 28 26.98 27.44 27.51 26.94C28.15 26.31 28.85 26 29.59 26C29.87 26 30.15 26.06 30.4 26.18C30.66 26.3 30.89 26.48 31.07 26.74L33.39 30.01C33.57 30.26 33.7 30.49 33.79 30.71C33.88 30.92 33.93 31.13 33.93 31.32C33.93 31.56 33.86 31.8 33.72 32.03C33.59 32.26 33.4 32.5 33.16 32.74L32.4 33.53C32.29 33.64 32.24 33.77 32.24 33.93C32.24 34.01 32.25 34.08 32.27 34.16C32.3 34.24 32.33 34.3 32.35 34.36C32.53 34.69 32.84 35.12 33.28 35.64C33.73 36.16 34.21 36.69 34.73 37.22C35.09 37.57 35.44 37.91 35.79 38.21Z" fill="#175CD3"/>
<path d="M45.97 42.33C45.97 42.61 45.92 42.9 45.82 43.18C45.79 43.26 45.76 43.34 45.72 43.42C45.55 43.78 45.33 44.12 45.04 44.44C44.55 44.98 44.01 45.37 43.4 45.62C43.39 45.62 43.38 45.63 43.37 45.63C42.78 45.87 42.14 46 41.45 46C40.43 46 39.34 45.76 38.19 45.27C37.04 44.78 35.89 44.12 34.75 43.29C34.36 43 33.97 42.71 33.6 42.4L36.87 39.13C37.15 39.34 37.4 39.5 37.61 39.61C37.66 39.63 37.72 39.66 37.79 39.69C37.87 39.72 37.95 39.73 38.04 39.73C38.21 39.73 38.34 39.67 38.45 39.56L39.21 38.81C39.46 38.56 39.7 38.37 39.93 38.25C40.16 38.11 40.39 38.04 40.64 38.04C40.83 38.04 41.03 38.08 41.25 38.17C41.47 38.26 41.7 38.39 41.95 38.56L45.26 40.91C45.52 41.09 45.7 41.3 45.81 41.55C45.91 41.8 45.97 42.05 45.97 42.33Z" fill="#175CD3"/>
<rect x="4" y="4" width="63" height="63" rx="28" stroke="#F9F5FF" stroke-width="8"/>
</svg>
