<svg width="56" height="56" viewBox="0 0 56 56" fill="none" xmlns="http://www.w3.org/2000/svg">
<rect x="4" y="4" width="48" height="48" rx="24" fill="#F4EBFF"/>
<path opacity="0.4" d="M32.8 18H22.21C19.89 18 18.01 19.88 18.01 22.19V28.37V28.56C18.01 30.88 19.89 32.75 22.2 32.75H25.8C26.35 32.75 26.8 33.2 26.8 33.75V34.57C26.8 35.12 26.35 35.57 25.8 35.57H23.55C23.16 35.57 22.84 35.89 22.84 36.28C22.84 36.67 23.16 36.99 23.55 36.99H31.48C31.87 36.99 32.19 36.67 32.19 36.28C32.19 35.89 31.87 35.57 31.48 35.57H29.23C28.68 35.57 28.23 35.12 28.23 34.57V33.75C28.23 33.2 28.68 32.75 29.23 32.75H32.8C35.12 32.75 36.99 30.87 36.99 28.56V28.37V22.19C36.99 19.88 35.11 18 32.8 18Z" fill="#175CD3"/>
<path d="M35.64 25.5H30.35C28.62 25.5 27.99 26.13 27.99 27.88V35.61C27.99 37.37 28.61 37.99 30.35 37.99H35.64C37.37 37.99 38 37.36 38 35.61V27.88C38 26.12 37.38 25.5 35.64 25.5ZM33 36.32C32.39 36.32 31.9 35.83 31.9 35.22C31.9 34.61 32.39 34.12 33 34.12C33.61 34.12 34.1 34.61 34.1 35.22C34.1 35.83 33.61 36.32 33 36.32Z" fill="#175CD3"/>
<path opacity="0.4" d="M34.1 35.2201C34.1 35.8301 33.61 36.3201 33 36.3201C32.39 36.3201 31.9 35.8301 31.9 35.2201C31.9 34.6101 32.39 34.1201 33 34.1201C33.61 34.1201 34.1 34.6201 34.1 35.2201Z" fill="#175CD3"/>
<rect x="4" y="4" width="48" height="48" rx="24" stroke="#F9F5FF" stroke-width="8"/>
</svg>
