<svg width="56" height="56" viewBox="0 0 56 56" fill="none" xmlns="http://www.w3.org/2000/svg">
<rect x="4" y="4" width="48" height="48" rx="24" fill="#F4EBFF"/>
<path opacity="0.4" d="M35.54 22.5398L32.47 19.4698C31.53 18.5298 30.26 18.0098 28.93 18.0098H24C21 18.0098 19 20.0098 19 23.0098V33.0098C19 36.0098 21 38.0098 24 38.0098H32C35 38.0098 37 36.0098 37 33.0098V26.0797C37 24.7397 36.47 23.4698 35.54 22.5398Z" fill="#175CD3"/>
<path d="M25.4999 34.7504C25.3099 34.7504 25.1199 34.6804 24.9699 34.5304L22.9699 32.5304C22.6799 32.2404 22.6799 31.7604 22.9699 31.4704L24.9699 29.4704C25.2599 29.1804 25.7399 29.1804 26.0299 29.4704C26.3199 29.7604 26.3199 30.2404 26.0299 30.5304L24.5599 32.0004L26.0299 33.4704C26.3199 33.7604 26.3199 34.2404 26.0299 34.5304C25.8799 34.6804 25.6899 34.7504 25.4999 34.7504Z" fill="#175CD3"/>
<path d="M30.4999 34.7504C30.3099 34.7504 30.1199 34.6804 29.9699 34.5304C29.6799 34.2404 29.6799 33.7604 29.9699 33.4704L31.4399 32.0004L29.9699 30.5304C29.6799 30.2404 29.6799 29.7604 29.9699 29.4704C30.2599 29.1804 30.7399 29.1804 31.0299 29.4704L33.0299 31.4704C33.3199 31.7604 33.3199 32.2404 33.0299 32.5304L31.0299 34.5304C30.8799 34.6804 30.6899 34.7504 30.4999 34.7504Z" fill="#175CD3"/>
<rect x="4" y="4" width="48" height="48" rx="24" stroke="#F9F5FF" stroke-width="8"/>
</svg>
