<svg width="56" height="56" viewBox="0 0 56 56" fill="none" xmlns="http://www.w3.org/2000/svg">
<rect x="4" y="4" width="48" height="48" rx="24" fill="#F4EBFF"/>
<path d="M33 38.75H23C22.59 38.75 22.25 38.41 22.25 38C22.25 37.59 22.59 37.25 23 37.25H33C33.41 37.25 33.75 37.59 33.75 38C33.75 38.41 33.41 38.75 33 38.75Z" fill="#175CD3"/>
<path opacity="0.4" d="M34 35H22C19.79 35 18 33.21 18 31V22C18 19.79 19.79 18 22 18H34C36.21 18 38 19.79 38 22V31C38 33.21 36.21 35 34 35Z" fill="#175CD3"/>
<path d="M33.26 25.0703H29.58C29.17 25.0703 28.83 24.7303 28.83 24.3203C28.83 23.9103 29.17 23.5703 29.58 23.5703H33.26C33.67 23.5703 34.01 23.9103 34.01 24.3203C34.01 24.7303 33.68 25.0703 33.26 25.0703Z" fill="#175CD3"/>
<path d="M26 25.3203C25.45 25.3203 25 24.8703 25 24.3203C25 23.7703 25.44 23.3203 26 23.3203C26.55 23.3203 27 23.7703 27 24.3203C27 24.8703 26.56 25.3203 26 25.3203Z" fill="#175CD3"/>
<path d="M22.85 25.3203C22.3 25.3203 21.85 24.8703 21.85 24.3203C21.85 23.7703 22.29 23.3203 22.85 23.3203H22.86C23.41 23.3203 23.86 23.7703 23.86 24.3203C23.86 24.8703 23.4 25.3203 22.85 25.3203Z" fill="#175CD3"/>
<path d="M33.26 30.8604H22.75C22.34 30.8604 21.99 30.5204 21.99 30.1104C21.99 29.7004 22.32 29.3604 22.73 29.3604H33.26C33.67 29.3604 34.01 29.7004 34.01 30.1104C34.01 30.5204 33.68 30.8604 33.26 30.8604Z" fill="#175CD3"/>
<rect x="4" y="4" width="48" height="48" rx="24" stroke="#F9F5FF" stroke-width="8"/>
</svg>
